<svg xmlns="http://www.w3.org/2000/svg" width="16" height="18" viewBox="0 0 16 18">
    <path fill="#FFF" fill-rule="nonzero" d="M7.434 13.079c-.824-.472-1.599-.969-2.421-1.367-.6-.292-.818-.666-.77-1.331.067-.9.017-1.807.017-2.758.115.048.2.074.274.116.9.515 1.803 1.027 2.695 1.556.109.065.229.221.23.337.018 1.082.011 2.163.01 3.245 0 .055-.019.11-.035.202zm1.098.019c0-1.232-.002-2.382.006-3.532 0-.075.067-.18.134-.22.995-.58 1.996-1.15 3.033-1.745.014.132.03.22.031.307.002 1.023.006 2.045-.005 3.068-.001.121-.053.302-.141.354-.991.589-1.994 1.157-3.058 1.768zm.029 4.85c-.012-.096-.03-.173-.03-.251-.003-1.022.003-2.043-.009-3.065-.003-.23.075-.356.277-.469.885-.492 1.758-1.005 2.636-1.509.079-.045.164-.08.302-.145v1.327c0 .682.01 1.363-.008 2.044-.003.125-.079.305-.179.364-.939.563-1.89 1.106-2.838 1.653-.038.021-.084.029-.151.051zM7.465 18c-1.07-.618-2.07-1.192-3.064-1.777a.342.342 0 0 1-.137-.25c-.01-1.138-.006-2.276-.006-3.419.057 0 .098-.012.123.002.971.555 1.943 1.11 2.91 1.673.078.045.166.155.167.235.01 1.148.007 2.297.007 3.536zM11.2 6.667C10.15 7.269 9.162 7.84 8.167 8.4c-.084.046-.236.054-.317.01-1.006-.565-2.004-1.143-3.05-1.743l1.34-.775c.542-.311 1.08-.627 1.627-.928.1-.055.268-.105.35-.06 1.017.568 2.024 1.153 3.083 1.762zM.004 5.135c1.06.61 2.05 1.176 3.036 1.75.07.04.148.138.149.209.009 1.159.006 2.317.006 3.535-.16-.084-.272-.138-.38-.2C1.959 9.94 1.1 9.45.248 8.95.148 8.89.016 8.773.015 8.683c-.016-1.158-.01-2.317-.01-3.549zm12.798 5.512c0-1.233-.003-2.382.005-3.531 0-.075.066-.18.132-.218.993-.58 1.992-1.153 3.056-1.765v.853c0 .857.003 1.714-.005 2.57-.001.105-.031.263-.102.305-1 .59-2.008 1.166-3.086 1.786zM.544 4.22c1.055-.607 2.043-1.18 3.038-1.74a.38.38 0 0 1 .316-.001c.996.559 1.984 1.13 3.003 1.716-.08.062-.135.115-.2.152-.907.524-1.815 1.05-2.728 1.565-.1.056-.27.112-.35.067-1.016-.567-2.022-1.151-3.08-1.76zm14.91 0c-1.052.604-2.05 1.18-3.052 1.748-.069.038-.194.047-.26.01-1.012-.573-2.02-1.156-3.078-1.764.9-.517 1.772-.98 2.6-1.51.438-.282.763-.267 1.195.009.823.525 1.688.985 2.595 1.506zm-10.6-2.476c.705-.406 1.393-.807 2.085-1.2C7.296.342 7.66.002 8.02 0c.347-.002.697.35 1.044.548.664.38 1.327.763 1.99 1.145.02.012.036.03.083.07-.075.056-.139.114-.212.156-.897.518-1.793 1.038-2.696 1.544-.104.059-.284.097-.373.047-.977-.544-1.943-1.107-2.911-1.667-.027-.015-.044-.047-.091-.1zM0 10.034l1.535.884c.48.275.965.542 1.436.831.1.062.212.205.213.312.015 1.103.009 2.206.007 3.31 0 .032-.018.064-.038.134-.255-.143-.5-.277-.74-.415-.726-.415-1.453-.827-2.17-1.254-.104-.062-.231-.197-.233-.3-.016-1.136-.01-2.273-.01-3.502zm15.994.002v2.08c0 .447.015.893-.007 1.338-.007.125-.092.297-.195.358-.93.553-1.872 1.086-2.812 1.624-.038.022-.084.032-.179.066v-1.071c0-.763-.006-1.526.007-2.289.002-.12.059-.295.148-.348.98-.582 1.971-1.145 3.038-1.758z" opacity=".5"/>
</svg>
