<svg xmlns="http://www.w3.org/2000/svg" width="16" height="16" viewBox="0 0 16 16">
    <path fill="#FFF" fill-rule="nonzero" d="M4.132.988c3.088.37 5.693 2.77 6.161 5.945a5.868 5.868 0 0 1-1.958.529c-1.027-2.574-3.76-4.031-6.528-4.54A8.023 8.023 0 0 1 4.132.988zM8.032 0a7.94 7.94 0 0 1 5.798 2.52c-.496 1.418-1.322 2.92-2.679 3.903A7.913 7.913 0 0 0 5.676.356 7.942 7.942 0 0 1 8.03 0zm6.497 3.371c.482.68.865 1.433 1.116 2.246-1.03 3.371-4.225 5.896-8.08 5.67.004-.896.258-1.863.774-2.878 2.836-.25 4.99-2.028 6.19-5.038zm1.438 3.953c.018.213.033.427.033.645 0 3.92-2.85 7.244-6.584 7.902a6.586 6.586 0 0 1-1.786-3.643c3.711.166 6.818-1.934 8.337-4.904zm-9.342 3.989c0 1.723.603 3.364 1.648 4.675-.08.002-.16.012-.242.012a8.097 8.097 0 0 1-2.71-.473c-2.38-2.843-1.929-7.142 1.01-9.445.515.525.93 1.136 1.19 1.848-.61 1.184-.896 2.306-.896 3.383zM5.622 5.458c-2.76 2.266-3.575 6.132-1.993 9.247A8.074 8.074 0 0 1 0 7.969a7.91 7.91 0 0 1 1.205-4.192c1.58.226 3.208.772 4.417 1.682z" opacity=".5"/>
</svg>
