<svg xmlns="http://www.w3.org/2000/svg" width="14" height="14" viewBox="0 0 14 14">
    <path fill="#FFF" fill-rule="nonzero" d="M.538 0h4.308c.298 0 .539.241.539.538v4.308a.538.538 0 0 1-.539.539H.538A.538.538 0 0 1 0 4.846V.538C0 .241.241 0 .538 0zm8.616 0h4.308c.297 0 .538.241.538.538v4.308a.538.538 0 0 1-.538.539H9.154a.538.538 0 0 1-.539-.539V.538c0-.297.241-.538.539-.538zM.538 8.615h4.308c.298 0 .539.241.539.539v4.308a.538.538 0 0 1-.539.538H.538A.538.538 0 0 1 0 13.462V9.154c0-.298.241-.539.538-.539zm8.616 0h4.308c.297 0 .538.241.538.539v4.308a.538.538 0 0 1-.538.538H9.154a.538.538 0 0 1-.539-.538V9.154c0-.298.241-.539.539-.539z"/>
</svg>
