<svg xmlns="http://www.w3.org/2000/svg" xmlns:xlink="http://www.w3.org/1999/xlink" width="52" height="52" viewBox="0 0 52 52">
    <defs>
        <rect id="b" width="28" height="28" rx="4"/>
        <filter id="a" width="228.6%" height="228.6%" x="-64.3%" y="-64.3%" filterUnits="objectBoundingBox">
            <feOffset in="SourceAlpha" result="shadowOffsetOuter1"/>
            <feGaussianBlur in="shadowOffsetOuter1" result="shadowBlurOuter1" stdDeviation="6"/>
            <feColorMatrix in="shadowBlurOuter1" values="0 0 0 0 0.435294118 0 0 0 0 0.431372549 0 0 0 0 1 0 0 0 0.5 0"/>
        </filter>
    </defs>
    <g fill="none" fill-rule="evenodd">
        <g transform="translate(12 12)">
            <use fill="#000" filter="url(#a)" xlink:href="#b"/>
            <use fill="#6F6EFF" xlink:href="#b"/>
        </g>
        <path fill="#FFF" fill-rule="nonzero" d="M34.162 22.517a3.952 3.952 0 0 0-1.116-.419l.033-.113c.138-.51.558-2.06-.42-3.343-.71-.932-1.788-1.217-2.366-1.368-.48-.127-1.115-.274-1.782-.274-1.002 0-1.86.343-2.51.947-.651-.604-1.51-.947-2.51-.947-.667 0-1.304.147-1.78.273-.58.153-1.66.438-2.369 1.37-.978 1.283-.558 2.833-.42 3.344l.033.111a3.981 3.981 0 0 0-1.12.42c-1.934 1.104-2.4 3.514-1.108 5.727.83 1.425 2.645 2.261 4.266 2.469C21.275 32.74 23.467 34.998 26 35c2.533 0 4.725-2.258 5.007-4.286 1.62-.208 3.436-1.044 4.267-2.468 1.292-2.215.826-4.624-1.11-5.73zm-7.195-2.15c.415-1.525 1.654-1.343 2.77-1.047 1.115.295 1.683.592 1.27 2.118-.414 1.526-1.654 3.704-2.769 3.409-1.116-.296-1.684-2.954-1.27-4.48zm-4.704-1.048c1.116-.296 2.356-.477 2.77 1.047.412 1.526-.155 4.186-1.271 4.48-1.115.296-2.355-1.884-2.77-3.409-.413-1.525.155-1.823 1.271-2.118zm.403 9.146c-.887.506-3.375-.066-4.081-1.279-.707-1.211-.566-2.327.322-2.834.887-.505 2.177-.208 2.884 1.006.71 1.211 1.76 2.604.875 3.107zM26 32.88c-1.6 0-2.895-1.685-2.895-2.597 0-.913 1.296-.709 2.895-.709 1.598.002 2.894-.204 2.894.709 0 .911-1.296 2.597-2.894 2.597zm7.415-5.693c-.707 1.213-3.195 1.784-4.081 1.28-.886-.505.166-1.897.874-3.108.707-1.214 1.998-1.51 2.884-1.006.888.507 1.03 1.623.323 2.834z"/>
    </g>
</svg>
