<svg xmlns="http://www.w3.org/2000/svg" width="12" height="18" viewBox="0 0 12 18">
    <path fill="#FFF" fill-rule="nonzero" d="M11.356 9.834l-1.016-.93c.026-.464.04-.841.04-1.051 0-3.133-1.503-6.03-4.023-7.752a.591.591 0 0 0-.663 0C3.174 1.821 1.67 4.72 1.67 7.852c0 .21.01.587.037 1.05l-1.037.93c-.367.336-.67.985-.67 1.478v3.62c0 .476.317.658.604.658a.792.792 0 0 0 .444-.131l1.964-1.269c.069-.045.135-.095.199-.156l2.206 3.581c.151.245.373.386.61.386.236 0 .458-.14.608-.384l2.207-3.58c.063.062.13.116.199.161l1.963 1.277c.15.097.288.147.432.147.286 0 .564-.214.564-.69v-3.62c0-.493-.276-1.142-.644-1.477zm-5.33-1.81A1.487 1.487 0 0 1 4.53 6.545c0-.817.67-1.479 1.496-1.479.827 0 1.497.662 1.497 1.479 0 .817-.67 1.479-1.497 1.479z" opacity=".5"/>
</svg>
